<?xml version="1.0" standalone="no"?>
<!DOCTYPE svg PUBLIC "-//W3C//DTD SVG 20010904//EN"
 "http://www.w3.org/TR/2001/REC-SVG-20010904/DTD/svg10.dtd">
<svg version="1.0" xmlns="http://www.w3.org/2000/svg"
 width="1080.000000pt" height="1080.000000pt" viewBox="0 0 1080.000000 1080.000000"
 preserveAspectRatio="xMidYMid meet">
<metadata>
Created by potrace 1.16, written by Peter Selinger 2001-2019
</metadata>
<g transform="translate(0.000000,1080.000000) scale(0.100000,-0.100000)"
fill="#000000" stroke="none">
<path d="M5657 9713 c-14 -113 -107 -821 -112 -849 -6 -35 -6 -35 111 -50 l51
-6 7 43 7 43 39 -46 c49 -56 100 -78 186 -78 76 0 126 18 172 63 122 117 150
400 53 534 -72 99 -247 122 -348 46 l-33 -24 0 24 c0 13 9 88 20 167 11 79 20
147 20 151 0 9 -32 16 -111 25 l-56 6 -6 -49z m339 -414 c42 -25 59 -70 59
-149 -1 -90 -21 -156 -62 -196 -30 -31 -39 -34 -91 -34 -113 0 -157 58 -150
194 8 148 74 225 178 209 19 -3 49 -14 66 -24z"/>
<path d="M4353 9597 l-93 -31 -1 -326 c-1 -179 -4 -336 -8 -349 -6 -21 -31 8
-215 250 -115 151 -210 275 -211 276 -5 8 -215 -71 -215 -81 0 -13 265 -809
274 -825 4 -6 34 0 80 15 l74 25 -93 279 c-51 154 -90 282 -86 284 3 2 91
-105 194 -240 206 -267 193 -256 282 -225 l50 18 6 309 c3 170 6 311 7 314 7
15 29 -44 107 -280 48 -146 89 -267 91 -269 4 -4 137 40 148 49 4 5 -54 195
-130 424 -103 308 -143 416 -154 415 -8 0 -57 -15 -107 -32z"/>
<path d="M6519 9587 c-24 -19 -39 -52 -39 -90 0 -83 130 -122 182 -55 10 13
18 41 18 65 0 34 -5 46 -31 67 -34 29 -101 35 -130 13z"/>
<path d="M4985 9465 c-76 -31 -146 -103 -170 -176 -52 -157 6 -366 122 -439
66 -42 114 -53 208 -48 219 12 336 167 303 400 -17 125 -72 208 -170 257 -54
27 -71 31 -147 31 -68 0 -99 -6 -146 -25z m216 -138 c56 -37 74 -86 74 -199 0
-82 -3 -101 -21 -125 -46 -63 -143 -82 -204 -40 -60 40 -75 78 -75 194 0 87 3
106 21 130 46 63 143 82 205 40z"/>
<path d="M6906 9481 c-3 -5 -69 -168 -147 -362 -158 -399 -170 -445 -127 -509
26 -39 116 -90 158 -90 25 0 29 6 44 61 10 33 16 62 14 62 -47 24 -63 36 -66
49 -2 9 58 171 133 360 76 189 139 351 142 360 4 12 -2 21 -18 27 -13 5 -47
18 -76 30 -29 11 -55 17 -57 12z"/>
<path d="M6445 9338 c-3 -7 -45 -151 -94 -320 l-88 -307 53 -16 c75 -22 114
-29 114 -20 0 5 145 514 176 616 4 13 -10 21 -65 38 -81 24 -90 25 -96 9z"/>
<path d="M7197 8986 c-94 -35 -164 -106 -219 -222 -29 -60 -33 -79 -33 -149 0
-70 4 -87 30 -134 36 -65 89 -112 175 -154 53 -26 77 -32 130 -32 64 0 150 27
150 46 0 5 -12 34 -27 64 -23 47 -31 55 -48 49 -48 -16 -113 -16 -146 1 -81
41 -116 104 -99 179 4 21 12 42 17 47 4 4 91 -40 192 -98 140 -80 189 -103
200 -96 9 5 32 40 51 77 66 130 52 244 -41 331 -93 87 -237 127 -332 91z m211
-163 c46 -37 59 -79 43 -133 -6 -22 -16 -40 -20 -40 -5 0 -60 30 -124 66 -78
44 -114 70 -111 79 5 13 42 42 74 57 32 16 101 1 138 -29z"/>
<path d="M2909 8656 c-56 -38 -81 -86 -78 -146 2 -27 0 -52 -3 -55 -3 -3 -17
10 -32 30 -15 19 -30 35 -34 35 -12 0 -117 -90 -117 -100 0 -18 410 -499 426
-500 8 0 40 22 69 49 l55 48 -57 69 c-31 38 -82 98 -112 134 -63 73 -106 151
-106 190 0 36 37 90 83 119 l37 24 -33 61 c-19 34 -40 62 -48 64 -8 1 -30 -9
-50 -22z"/>
<path d="M7984 8281 l-421 -197 59 -67 60 -66 97 49 98 49 94 -97 c52 -53 106
-109 119 -125 l24 -28 -50 -94 -49 -94 65 -65 65 -65 212 417 212 417 -75 83
c-42 45 -79 82 -82 81 -4 0 -197 -89 -428 -198z m360 -44 c-9 -18 -48 -92 -86
-165 l-70 -133 -83 88 -83 88 162 81 c88 45 164 80 168 77 5 -2 1 -19 -8 -36z"/>
<path d="M3394 8410 c-63 -41 -68 -118 -11 -166 41 -35 97 -29 141 15 44 44
43 102 -2 142 -39 35 -83 38 -128 9z"/>
<path d="M2473 8199 c-60 -11 -100 -35 -154 -90 -107 -109 -132 -238 -71 -361
64 -131 213 -232 342 -232 55 0 75 5 128 34 107 57 190 169 200 269 5 53 -13
131 -30 131 -7 0 -37 -7 -69 -16 l-57 -16 5 -57 c4 -50 2 -61 -25 -101 -38
-56 -83 -83 -136 -83 -41 0 -106 26 -106 42 0 5 61 80 135 167 74 88 135 164
135 171 0 19 -92 94 -145 118 -63 28 -99 34 -152 24z m88 -166 c16 -10 29 -20
29 -24 0 -15 -174 -209 -184 -206 -6 2 -19 24 -30 49 -26 63 -16 111 34 160
32 32 44 38 80 38 23 0 55 -8 71 -17z"/>
<path d="M8310 7565 c-217 -135 -394 -249 -393 -253 4 -19 76 -132 83 -132 4
0 70 38 146 85 76 47 142 85 147 85 5 0 6 -8 2 -17 -37 -97 29 -239 137 -294
117 -60 296 -8 430 122 70 69 98 124 98 199 0 121 -105 250 -204 250 -35 0
-33 11 10 38 l35 23 -21 32 c-11 18 -30 49 -42 70 -12 20 -24 37 -27 37 -3 0
-184 -111 -401 -245z m408 -45 c46 -28 72 -76 72 -133 0 -42 -5 -53 -40 -91
-87 -95 -220 -136 -287 -88 -57 41 -80 130 -49 191 35 66 157 141 231 141 22
0 54 -9 73 -20z"/>
<path d="M2022 7599 c-125 -24 -227 -187 -188 -300 22 -61 21 -62 -25 -39 -37
19 -42 20 -53 5 -19 -27 -69 -125 -65 -129 7 -6 808 -456 813 -456 9 0 87 145
79 148 -37 14 -285 161 -283 168 1 5 17 14 36 19 128 37 201 228 135 355 -32
61 -107 130 -188 172 -107 56 -183 72 -261 57z m166 -204 c38 -20 86 -53 106
-75 30 -34 36 -47 36 -86 0 -85 -50 -144 -130 -152 -44 -4 -61 0 -125 32 -115
57 -162 135 -130 213 45 108 121 129 243 68z"/>
<path d="M8695 6925 c-231 -84 -426 -157 -433 -162 -11 -6 -8 -22 13 -80 15
-40 33 -73 39 -73 7 0 79 25 161 55 82 30 151 52 154 49 2 -2 -3 -20 -12 -39
-55 -115 36 -301 164 -335 73 -20 192 -8 279 29 206 86 279 229 199 389 -31
63 -64 94 -119 113 -40 15 -38 23 11 38 23 7 39 17 36 24 -2 7 -15 42 -28 80
-13 37 -28 66 -34 66 -5 -1 -199 -70 -430 -154z m381 -125 c56 -52 70 -134 31
-191 -54 -81 -242 -135 -313 -91 -37 24 -67 82 -67 132 0 72 43 118 151 161
68 27 162 22 198 -11z"/>
<path d="M1708 6866 c-136 -36 -230 -171 -231 -331 -1 -163 111 -281 305 -321
218 -45 390 103 391 336 1 160 -100 271 -285 315 -75 18 -117 18 -180 1z m139
-170 c157 -42 216 -131 162 -244 -17 -35 -32 -49 -68 -65 -40 -18 -52 -19
-106 -9 -176 33 -254 135 -192 252 39 74 100 94 204 66z"/>
<path d="M1109 6148 c0 -2 -6 -38 -13 -81 -12 -75 -12 -78 8 -82 89 -19 738
-115 779 -115 73 0 117 25 145 81 24 49 40 143 25 152 -5 3 -37 9 -71 13 -59
6 -62 6 -62 -15 0 -40 -18 -61 -54 -61 -18 0 -189 25 -380 55 -326 52 -375 59
-377 53z"/>
<path d="M9191 5939 c-217 -11 -396 -21 -398 -23 -10 -9 18 -397 32 -450 56
-214 230 -315 492 -285 183 21 289 94 348 239 23 57 30 199 20 394 l-7 146
-47 -1 c-25 -1 -223 -10 -440 -20z m352 -245 c17 -236 -72 -334 -302 -334
-148 0 -208 29 -255 123 -25 51 -30 73 -34 162 l-5 103 104 7 c57 3 183 10
279 14 96 4 182 9 191 10 13 1 17 -14 22 -85z"/>
<path d="M1477 5756 c-126 -46 -188 -158 -173 -315 17 -191 175 -307 390 -287
138 13 239 84 281 197 29 79 27 217 -3 281 -22 45 -101 128 -122 128 -5 0 -27
-25 -47 -56 l-37 -56 24 -20 c45 -37 60 -69 60 -133 0 -97 -40 -148 -132 -169
l-28 -6 -2 222 -3 223 -85 2 c-52 2 -100 -3 -123 -11z m103 -286 c0 -155 2
-152 -67 -121 -50 23 -74 57 -80 114 -7 75 53 147 125 147 22 0 22 -1 22 -140z"/>
<path d="M8989 5070 c-147 -26 -239 -146 -247 -323 -5 -106 10 -156 68 -212
44 -43 47 -42 102 27 l31 39 -20 22 c-50 54 -57 125 -20 197 28 55 59 78 120
86 58 8 58 22 13 -236 -19 -107 -32 -198 -30 -201 8 -13 158 -31 203 -24 122
18 197 104 222 252 20 120 -23 232 -117 303 -71 55 -226 88 -325 70z m259
-218 c50 -33 69 -131 36 -193 -17 -34 -66 -59 -114 -59 -37 0 -37 4 -10 154
11 60 20 113 20 118 0 11 37 0 68 -20z"/>
<path d="M1321 5013 c0 -16 6 -53 12 -83 l12 -55 247 -40 c137 -22 248 -44
248 -50 -1 -5 -97 -64 -215 -129 -241 -134 -225 -115 -202 -234 l12 -62 295
171 c162 94 301 177 308 184 11 10 10 29 -3 106 -9 51 -17 95 -18 96 -3 2
-671 123 -685 123 -7 0 -12 -12 -11 -27z"/>
<path d="M1951 4403 c-25 -99 -25 -101 8 -108 95 -21 154 -161 104 -247 -21
-34 -81 -75 -92 -62 -4 5 -39 92 -76 194 -38 102 -72 190 -77 197 -7 9 -23 7
-65 -8 -117 -40 -176 -90 -208 -174 -55 -144 58 -367 209 -410 179 -52 424 68
467 228 26 98 -7 242 -77 334 -30 39 -96 79 -146 88 -36 7 -37 6 -47 -32z
m-131 -334 l48 -124 -27 -8 c-44 -14 -106 8 -137 49 -34 44 -44 121 -21 155
19 26 68 60 81 56 5 -2 30 -59 56 -128z"/>
<path d="M8626 4291 c-6 -8 -66 -170 -66 -175 0 -3 411 -359 506 -439 l34 -28
11 28 c6 15 19 52 29 80 l19 53 -195 162 c-107 88 -191 164 -188 167 3 3 119
4 257 2 l252 -3 24 69 c13 37 26 74 29 81 3 9 -71 12 -351 12 -196 0 -358 -4
-361 -9z"/>
<path d="M8469 3775 c-91 -29 -191 -145 -224 -260 -14 -48 -15 -67 -6 -113 6
-31 18 -66 26 -78 l15 -23 60 27 c55 24 60 29 55 52 -18 82 -16 104 15 157 18
31 43 59 63 69 38 20 105 21 140 2 l24 -13 -110 -183 c-89 -147 -109 -187
-101 -200 16 -25 146 -90 197 -97 151 -23 303 128 315 311 4 62 1 79 -23 133
-70 155 -295 265 -446 216z m288 -267 c62 -69 54 -161 -20 -220 -33 -26 -112
-22 -146 8 -5 4 132 234 140 234 3 0 15 -10 26 -22z"/>
<path d="M2134 3725 c-99 -22 -200 -78 -286 -161 -62 -60 -92 -105 -112 -174
-28 -94 -15 -188 39 -293 20 -38 187 -305 211 -335 3 -5 744 478 744 485 0 3
-51 83 -114 178 -123 185 -167 232 -261 275 -75 35 -142 43 -221 25z m174
-181 c20 -8 52 -29 71 -47 34 -33 131 -170 130 -184 0 -9 -475 -318 -489 -318
-11 0 -86 115 -111 170 -11 24 -19 64 -19 101 0 49 5 68 29 105 60 96 214 188
314 189 21 0 54 -7 75 -16z"/>
<path d="M8057 3246 c-20 -8 -45 -20 -54 -27 -25 -21 -73 -90 -73 -105 0 -8
24 -29 53 -49 l52 -35 18 25 c11 14 29 25 41 25 16 0 125 -84 321 -245 163
-135 300 -243 304 -241 4 3 28 32 54 65 l48 60 -137 113 c-76 62 -210 173
-298 246 -210 174 -252 195 -329 168z"/>
<path d="M7810 2961 c-89 -28 -181 -106 -227 -192 -39 -76 -40 -179 -1 -262
40 -85 145 -187 223 -216 150 -57 325 16 410 171 27 47 30 62 30 138 0 78 -3
90 -34 148 -45 83 -142 173 -216 201 -56 21 -137 26 -185 12z m141 -179 c47
-30 95 -84 123 -139 64 -125 -77 -263 -203 -199 -44 23 -116 100 -141 151 -35
72 -22 125 45 184 49 42 111 43 176 3z"/>
<path d="M2955 2891 c-103 -27 -221 -135 -282 -257 -62 -126 -49 -228 39 -316
55 -55 94 -72 165 -72 35 -1 63 -4 63 -9 0 -4 -47 -64 -105 -134 -58 -70 -105
-130 -105 -133 0 -8 117 -100 126 -99 5 0 20 14 34 32 14 18 145 177 292 354
148 177 268 326 267 330 0 4 -27 30 -61 57 l-61 50 -27 -31 c-33 -36 -40 -33
-40 16 0 129 -171 248 -305 212z m154 -189 c39 -28 71 -81 71 -116 0 -73 -93
-201 -167 -232 -66 -28 -138 -6 -180 56 -44 64 -23 147 60 237 76 83 153 102
216 55z"/>
<path d="M7180 2813 c-30 -18 -61 -38 -69 -42 -11 -7 4 -40 72 -157 48 -81 85
-150 83 -152 -2 -2 -23 2 -47 8 -77 21 -171 -18 -241 -99 -85 -99 -74 -242 30
-402 79 -120 159 -173 262 -173 117 1 240 103 240 200 0 34 15 30 40 -11 12
-19 25 -34 28 -32 4 2 35 21 70 42 48 28 62 41 57 54 -10 25 -447 774 -459
787 -8 9 -26 2 -66 -23z m130 -471 c72 -38 150 -192 135 -262 -15 -69 -102
-128 -170 -116 -20 4 -53 23 -75 43 -43 38 -97 137 -106 194 -9 51 19 104 70
134 49 30 99 32 146 7z"/>
<path d="M3535 2471 c-38 -10 -95 -39 -95 -49 0 -4 13 -29 28 -57 29 -53 28
-53 110 -39 56 9 121 -16 162 -62 35 -40 42 -100 20 -160 -9 -22 -14 -20 -193
77 -102 54 -192 99 -201 99 -11 0 -30 -26 -53 -77 -67 -141 -56 -240 38 -328
96 -90 230 -126 338 -90 79 26 152 99 204 203 39 79 42 91 42 166 0 71 -4 88
-30 135 -68 124 -251 213 -370 182z m88 -445 c37 -20 67 -40 67 -45 0 -10 -40
-46 -67 -60 -49 -25 -128 -6 -173 44 -28 30 -33 92 -11 133 l12 23 52 -29 c29
-16 82 -46 120 -66z"/>
<path d="M6485 2186 c-121 -38 -198 -113 -220 -213 -6 -29 -4 -33 22 -39 15
-3 45 -10 67 -16 21 -5 39 -8 40 -6 1 2 11 24 23 49 17 37 31 51 69 70 62 30
134 31 172 2 33 -25 68 -82 56 -92 -5 -5 -98 -39 -207 -76 l-198 -68 6 -31
c10 -47 58 -147 90 -184 55 -65 145 -92 242 -72 116 24 206 87 247 173 48 100
43 203 -15 327 -60 130 -149 190 -279 189 -41 0 -93 -6 -115 -13z m275 -405
c0 -39 -6 -56 -27 -82 -47 -55 -134 -76 -180 -44 -21 15 -69 83 -62 89 7 6
244 84 257 85 8 1 12 -15 12 -48z"/>
<path d="M4003 1797 c-111 -215 -203 -398 -205 -406 -2 -10 19 -20 75 -34 43
-11 79 -18 81 -16 2 2 68 132 147 289 l144 285 7 -324 c4 -178 11 -327 15
-331 4 -4 36 -14 70 -22 l63 -16 48 87 c27 47 97 175 157 284 59 109 111 195
114 190 7 -7 3 -149 -13 -503 l-7 -136 84 -20 84 -21 7 151 c3 83 9 288 12
456 l7 306 -74 17 c-41 10 -84 20 -95 23 -19 5 -37 -23 -165 -256 -118 -214
-145 -258 -150 -238 -4 12 -7 147 -8 297 -1 151 -3 276 -5 278 -3 3 -184 53
-189 53 -1 0 -93 -177 -204 -393z"/>
<path d="M6043 2056 c-34 -6 -64 -13 -67 -16 -3 -3 9 -88 25 -189 34 -198 33
-250 -3 -297 -27 -33 -75 -54 -128 -54 l-40 0 0 -74 c0 -70 1 -74 25 -80 32
-8 102 8 134 31 14 11 35 38 46 61 11 23 23 41 27 42 4 0 10 -17 13 -37 11
-63 9 -61 62 -52 26 5 62 11 79 14 l31 5 -56 330 c-45 266 -59 330 -71 329 -8
-1 -43 -7 -77 -13z"/>
</g>
</svg>
